<?xml version="1.0" ?><svg viewBox="0 0 68 68" xmlns="http://www.w3.org/2000/svg"><defs><style>.cls-1{fill:#404a6b;}</style></defs><title/><g data-name="Icon 9" id="Icon_9"><path class="cls-1" d="M43.21,32.21a.8689.8689,0,0,1,.17.16.791.791,0,0,0-.24-.21Z"/><path class="cls-1" d="M50.78,43.58v.54a3.0088,3.0088,0,0,1-3,3H20.22a3.0088,3.0088,0,0,1-3-3v-.54a1.0029,1.0029,0,0,1,1-1H49.78A1.0029,1.0029,0,0,1,50.78,43.58Z"/><path class="cls-1" d="M50.78,43.58v.54a3.0088,3.0088,0,0,1-3,3H20.22a3.0088,3.0088,0,0,1-3-3v-.54a1.0029,1.0029,0,0,1,1-1H49.78A1.0029,1.0029,0,0,1,50.78,43.58Z"/><path class="cls-1" d="M46.76,22.88H21.24a2.0272,2.0272,0,0,0-2.02,2.02V40.58H48.78V24.9A2.0272,2.0272,0,0,0,46.76,22.88ZM30.22,35.42a.9957.9957,0,0,1-.61,1.79,1.0117,1.0117,0,0,1-.61-.2l-4.19-3.2a.9967.9967,0,0,1-.21-.2.95.95,0,0,1-.1-.17,1.0067,1.0067,0,0,1,0-.88.95.95,0,0,1,.1-.17l.02-.02a.8689.8689,0,0,1,.17-.16l.07-.05L29,28.99a1.0021,1.0021,0,1,1,1.22,1.59L27.04,33Zm6.03-5.1-2.67,6.16a1.0049,1.0049,0,0,1-.92.6,1.0875,1.0875,0,0,1-.39-.08,1.0047,1.0047,0,0,1-.52-1.32l2.67-6.16a.9986.9986,0,1,1,1.83.8Zm7.25,3.12a.95.95,0,0,1-.1.17.9967.9967,0,0,1-.21.2L39,37.01a.9912.9912,0,0,1-.61.2.9957.9957,0,0,1-.61-1.79L40.96,33l-3.18-2.42A1.0021,1.0021,0,1,1,39,28.99l4.14,3.17a.791.791,0,0,1,.24.21l.02.02a.95.95,0,0,1,.1.17A1.0067,1.0067,0,0,1,43.5,33.44Z"/><path class="cls-1" d="M30.33,55.39a1.6837,1.6837,0,0,0-1.23.53,21.1336,21.1336,0,0,1-8.19-3.82.642.642,0,0,0-.13-.1,21.2836,21.2836,0,0,1-8.23-16.78v-.01a21.2468,21.2468,0,0,1,7.94-16.56,4.9162,4.9162,0,0,0,.45-.28l.01-.01c.2-.13.51-.3.89-.5,2.67-1.45,8.93-4.83,8.44-11.33a.993.993,0,0,0-.99-.92,10.38,10.38,0,0,0-6.86,2.95c-1.97,2-2.99,4.84-3.04,8.42a.5547.5547,0,0,0-.08.06,22.4168,22.4168,0,0,0-3.24,3.14c.06-3.22-.62-7.69-4.21-10.6a.9891.9891,0,0,0-.84-.2,1.0053,1.0053,0,0,0-.69.53c-.14.29-3.44,7.07-1.16,11.5a6.2808,6.2808,0,0,0,3.96,3.14,22.1194,22.1194,0,0,0-2.1,6.01c-1.35-2.77-3.81-5.87-8.11-6.31a.9971.9971,0,0,0-.77.26.9635.9635,0,0,0-.33.73c0,.33.01,6.42,3.55,9.44a6.9459,6.9459,0,0,0,4.68,1.66,4.7845,4.7845,0,0,0,.53-.02,22.8182,22.8182,0,0,0,1.39,6.87,15.6025,15.6025,0,0,0-10.15.52.9979.9979,0,0,0-.59.63.972.972,0,0,0,.12.86c.12.18,2.98,4.41,6.96,4.45h.07a7.076,7.076,0,0,0,5.31-2.8,23.0649,23.0649,0,0,0,3.95,5.07c-2.99.46-7.48,2.33-8.47,9.33a.9889.9889,0,0,0,.26.82.97.97,0,0,0,.73.32h.07c.08-.01,8.23-.65,10.6-7.9a22.7827,22.7827,0,0,0,8.02,3.42,1.6966,1.6966,0,1,0,1.48-2.52Z"/><path class="cls-1" d="M66.77,44.34a.9979.9979,0,0,0-.59-.63,15.6025,15.6025,0,0,0-10.15-.52,22.8182,22.8182,0,0,0,1.39-6.87,4.7845,4.7845,0,0,0,.53.02,6.9459,6.9459,0,0,0,4.68-1.66c3.54-3.02,3.55-9.11,3.55-9.44a.9635.9635,0,0,0-.33-.73.9971.9971,0,0,0-.77-.26c-4.3.44-6.76,3.54-8.11,6.31a22.1194,22.1194,0,0,0-2.1-6.01,6.2808,6.2808,0,0,0,3.96-3.14c2.28-4.43-1.02-11.21-1.16-11.5a1.0053,1.0053,0,0,0-.69-.53.9891.9891,0,0,0-.84.2c-3.59,2.91-4.27,7.38-4.21,10.6a22.4168,22.4168,0,0,0-3.24-3.14.5547.5547,0,0,0-.08-.06c-.05-3.58-1.07-6.42-3.04-8.42a10.38,10.38,0,0,0-6.86-2.95.993.993,0,0,0-.99.92c-.49,6.5,5.77,9.88,8.44,11.33.38.21.7.37.88.49,0,.01.01.01.02.02a4.9162,4.9162,0,0,0,.45.28,21.2468,21.2468,0,0,1,7.94,16.56v.01A21.2878,21.2878,0,0,1,47.09,52.1a21.0258,21.0258,0,0,1-8.36,3.86,1.672,1.672,0,0,0-1.04-.42,1.7014,1.7014,0,0,0-.14,3.4,1.6772,1.6772,0,0,0,1.63-1.04,22.8024,22.8024,0,0,0,7.99-3.41c2.37,7.25,10.52,7.89,10.6,7.9h.07a.97.97,0,0,0,.73-.32.9889.9889,0,0,0,.26-.82c-.99-7-5.48-8.87-8.47-9.33a23.0649,23.0649,0,0,0,3.95-5.07,7.076,7.076,0,0,0,5.31,2.8h.07c3.98-.04,6.84-4.27,6.96-4.45A.972.972,0,0,0,66.77,44.34Z"/></g></svg>